<svg xmlns="http://www.w3.org/2000/svg" xmlns:xlink="http://www.w3.org/1999/xlink" fill="none" version="1.1" width="32" height="32" viewBox="0 0 32 32"><defs><clipPath id="master_svg0_1_0"><rect x="0" y="0" width="32" height="32" rx="0"/></clipPath></defs><g clip-path="url(#master_svg0_1_0)"><g><path d="M16,15L16,32L23,16L16,15Z" fill="#DADBDC" fill-opacity="1"/></g><g><path d="M8.999980926513672,16L15.999980926513672,32L15.999980926513672,15L8.999980926513672,16Z" fill="#FFFFFF" fill-opacity="1"/></g><g><path d="M16,15L23,16L16,0L16,15Z" fill="#AB1F3F" fill-opacity="1"/></g><g><path d="M9,16L16,15L16,0L9,16Z" fill="#D03050" fill-opacity="1"/></g><g><path d="M15.727119536743164,0.623724L9.000009536743164,16L15.727129536743163,31.3763L16.000009536743164,32L16.272889536743165,31.3763L23.000009536743164,16L16.272879536743165,0.623723L15.999999536743164,0L15.727119536743164,0.623724ZM22.454209536743164,16L16.000009536743164,30.7526L9.545767536743163,16L15.999999536743164,1.24745L22.454209536743164,16Z" fill-rule="evenodd" fill="#828589" fill-opacity="1"/></g><g><g><ellipse cx="496" cy="16" rx="12" ry="12" fill="#409EFF" fill-opacity="1"/><path d="M508,16Q508,16.294600000000003,507.9855,16.5888Q507.9711,16.883,507.9422,17.1762Q507.9133,17.4694,507.8701,17.7608Q507.8269,18.0522,507.7694,18.3411Q507.712,18.630000000000003,507.6404,18.9158Q507.5688,19.2015,507.4833,19.4834Q507.3978,19.7653,507.2985,20.0427Q507.1993,20.32,507.0866,20.5922Q506.9738,20.8644,506.8479,21.1307Q506.7219,21.397,506.5831,21.6568Q506.4442,21.9166,506.2927,22.1692Q506.1413,22.4219,505.9776,22.6668Q505.814,22.9118,505.6385,23.1484Q505.463,23.385,505.2761,23.6127Q505.0892,23.8404,504.8914,24.0587Q504.6936,24.277,504.4853,24.4853Q504.277,24.6936,504.0587,24.8914Q503.8404,25.0892,503.6127,25.2761Q503.385,25.463,503.1484,25.6385Q502.91179999999997,25.814,502.6668,25.9776Q502.4219,26.1413,502.1692,26.2927Q501.9166,26.4442,501.6568,26.5831Q501.397,26.7219,501.1307,26.8479Q500.8644,26.9738,500.5922,27.0866Q500.32,27.1993,500.0427,27.2985Q499.7653,27.3978,499.4834,27.4833Q499.2015,27.5688,498.9158,27.6404Q498.63,27.712,498.3411,27.7694Q498.05219999999997,27.8269,497.7608,27.8701Q497.4694,27.9133,497.1762,27.9422Q496.883,27.9711,496.5888,27.9855Q496.2946,28,496,28Q495.7054,28,495.4112,27.9855Q495.117,27.9711,494.8238,27.9422Q494.5306,27.9133,494.2392,27.8701Q493.94784,27.8269,493.65892,27.7694Q493.36999,27.712,493.08424,27.6404Q492.79848,27.5688,492.51658,27.4833Q492.23468,27.3978,491.95732,27.2985Q491.67996,27.1993,491.4078,27.0866Q491.13564,26.9738,490.86934,26.8479Q490.60304,26.7219,490.34324,26.5831Q490.08344,26.4442,489.83077,26.2927Q489.57809,26.1413,489.33316,25.9776Q489.08822,25.814,488.85161,25.6385Q488.615,25.463,488.38728,25.2761Q488.15956,25.0892,487.94129,24.8914Q487.72302,24.6936,487.51472,24.4853Q487.30642,24.277,487.10859,24.0587Q486.91076,23.8404,486.72387,23.6127Q486.53699,23.385,486.36151,23.1484Q486.18603,22.9118,486.02236,22.6668Q485.8587,22.4219,485.70726,22.1692Q485.55581,21.9166,485.41694,21.6568Q485.27808,21.397,485.15213,21.1307Q485.02618,20.8644,484.913446,20.5922Q484.800713,20.32,484.701471,20.0427Q484.602229,19.7653,484.516716,19.4834Q484.431203,19.2015,484.359625,18.9158Q484.288047,18.630000000000003,484.230577,18.3411Q484.173106,18.0522,484.129882,17.7608Q484.0866575,17.4694,484.0577833,17.1762Q484.028909,16.883,484.0144545,16.5888Q484,16.294600000000003,484,16Q484,15.7054,484.0144545,15.4112Q484.028909,15.117,484.0577833,14.8238Q484.0866575,14.5306,484.129882,14.2392Q484.173106,13.94784,484.230577,13.65892Q484.288047,13.36999,484.359625,13.08424Q484.431203,12.79848,484.516716,12.51658Q484.602229,12.23468,484.701471,11.95732Q484.800713,11.679960000000001,484.913446,11.4078Q485.02618,11.13564,485.15213,10.869340000000001Q485.27808,10.60304,485.41694,10.34324Q485.55581,10.08344,485.70726,9.830770000000001Q485.8587,9.57809,486.02236,9.33316Q486.18603,9.08822,486.36151,8.85161Q486.53699,8.615,486.72387,8.38728Q486.91076,8.159559999999999,487.10859,7.94129Q487.30642,7.72302,487.51472,7.5147200000000005Q487.72302,7.30642,487.94129,7.1085899999999995Q488.15956,6.91076,488.38728,6.72387Q488.615,6.536989999999999,488.85161,6.36151Q489.08822,6.186030000000001,489.33316,6.02236Q489.57809,5.8587,489.83077,5.70726Q490.08344,5.55581,490.34324,5.41694Q490.60304,5.27808,490.86934,5.15213Q491.13564,5.02618,491.4078,4.913446Q491.67996,4.800713,491.95732,4.701471Q492.23468,4.602229,492.51658,4.516716Q492.79848,4.431203,493.08424,4.359625Q493.36999,4.288047,493.65892,4.230577Q493.94784,4.173106,494.2392,4.129882Q494.5306,4.0866575,494.8238,4.0577833Q495.117,4.028909,495.4112,4.0144545Q495.7054,4,496,4Q496.2946,4,496.5888,4.0144545Q496.883,4.028909,497.1762,4.0577833Q497.4694,4.0866575,497.7608,4.129882Q498.05219999999997,4.173106,498.3411,4.230577Q498.63,4.288047,498.9158,4.359625Q499.2015,4.431203,499.4834,4.516716Q499.7653,4.602229,500.0427,4.701471Q500.32,4.800713,500.5922,4.913446Q500.8644,5.02618,501.1307,5.15213Q501.397,5.27808,501.6568,5.41694Q501.9166,5.55581,502.1692,5.70726Q502.4219,5.8587,502.6668,6.02236Q502.91179999999997,6.186030000000001,503.1484,6.36151Q503.385,6.536989999999999,503.6127,6.72387Q503.8404,6.91076,504.0587,7.1085899999999995Q504.277,7.30642,504.4853,7.5147200000000005Q504.6936,7.72302,504.8914,7.94129Q505.0892,8.159559999999999,505.2761,8.38728Q505.463,8.615,505.6385,8.85161Q505.814,9.08822,505.9776,9.33316Q506.1413,9.57809,506.2927,9.830770000000001Q506.4442,10.08344,506.5831,10.34324Q506.7219,10.60304,506.8479,10.869340000000001Q506.9738,11.13564,507.0866,11.4078Q507.1993,11.679960000000001,507.2985,11.95732Q507.3978,12.23468,507.4833,12.51658Q507.5688,12.79848,507.6404,13.08424Q507.712,13.36999,507.7694,13.65892Q507.8269,13.94784,507.8701,14.2392Q507.9133,14.5306,507.9422,14.8238Q507.9711,15.117,507.9855,15.4112Q508,15.7054,508,16ZM506,16Q506,15.7545,505.988,15.5093Q505.9759,15.2641,505.9518,15.0198Q505.9278,14.7755,505.8918,14.5327Q505.8557,14.2899,505.8078,14.0491Q505.76,13.80833,505.70029999999997,13.5702Q505.6407,13.33207,505.5694,13.09715Q505.4981,12.86224,505.4154,12.6311Q505.3327,12.39997,505.2388,12.17317Q505.1448,11.94637,505.0399,11.724450000000001Q504.93489999999997,11.50253,504.8192,11.28603Q504.7035,11.06953,504.5773,10.85897Q504.4511,10.64841,504.3147,10.4443Q504.1783,10.240179999999999,504.0321,10.043009999999999Q503.8858,9.84583,503.7301,9.65607Q503.5744,9.4663,503.4095,9.284410000000001Q503.2447,9.10252,503.0711,8.928930000000001Q502.8975,8.75535,502.7156,8.590489999999999Q502.5337,8.42563,502.3439,8.2699Q502.1542,8.11416,501.957,7.9679199999999994Q501.7598,7.82169,501.5557,7.6853Q501.3516,7.54892,501.141,7.42271Q500.9305,7.29651,500.714,7.18079Q500.4975,7.06507,500.2755,6.96011Q500.0536,6.85515,499.8268,6.7612000000000005Q499.6,6.667260000000001,499.3689,6.58456Q499.1378,6.501860000000001,498.9028,6.4306Q498.6679,6.3593399999999995,498.4298,6.29969Q498.1917,6.2400400000000005,497.9509,6.19215Q497.7101,6.14426,497.4673,6.10823Q497.2245,6.07221,496.9802,6.04815Q496.7359,6.02409,496.4907,6.01205Q496.2455,6,496,6Q495.7545,6,495.5093,6.01205Q495.2641,6.02409,495.0198,6.04815Q494.7755,6.07221,494.5327,6.10823Q494.2899,6.14426,494.0491,6.19215Q493.80833,6.2400400000000005,493.5702,6.29969Q493.33207,6.3593399999999995,493.09715,6.4306Q492.86224,6.501860000000001,492.6311,6.58456Q492.39997,6.667260000000001,492.17317,6.7612000000000005Q491.94637,6.85515,491.72445,6.96011Q491.50253,7.06507,491.28603,7.18079Q491.06953,7.29651,490.85897,7.42271Q490.64841,7.54892,490.4443,7.6853Q490.24018,7.82169,490.04301,7.9679199999999994Q489.84583,8.11416,489.65607,8.2699Q489.4663,8.42563,489.28441,8.590489999999999Q489.10252,8.75535,488.92893,8.928930000000001Q488.75535,9.10252,488.59049,9.284410000000001Q488.42563,9.4663,488.2699,9.65607Q488.11416,9.84583,487.96792,10.043009999999999Q487.82169,10.240179999999999,487.6853,10.4443Q487.54892,10.64841,487.42271,10.85897Q487.29651,11.06953,487.18079,11.28603Q487.06507,11.50253,486.96011,11.724450000000001Q486.85515,11.94637,486.7612,12.17317Q486.66726,12.39997,486.58456,12.6311Q486.50186,12.86224,486.4306,13.09715Q486.35934,13.33207,486.29969,13.5702Q486.24004,13.80833,486.19215,14.0491Q486.14425,14.2899,486.10823,14.5327Q486.07221,14.7755,486.04815,15.0198Q486.02409,15.2641,486.01205,15.5093Q486,15.7545,486,16Q486,16.2455,486.01205,16.4907Q486.02409,16.7359,486.04815,16.9802Q486.07221,17.2245,486.10823,17.4673Q486.14425,17.7101,486.19215,17.9509Q486.24004,18.1917,486.29969,18.4298Q486.35934,18.6679,486.4306,18.9028Q486.50186,19.1378,486.58456,19.3689Q486.66726,19.6,486.7612,19.8268Q486.85515,20.0536,486.96011,20.2755Q487.06507,20.4975,487.18079,20.714Q487.29651,20.9305,487.42271,21.141Q487.54892,21.3516,487.6853,21.5557Q487.82169,21.7598,487.96792,21.957Q488.11416,22.1542,488.2699,22.3439Q488.42563,22.5337,488.59049,22.7156Q488.75535,22.8975,488.92893,23.0711Q489.10252,23.2447,489.28441,23.4095Q489.4663,23.5744,489.65607,23.7301Q489.84583,23.8858,490.04301,24.0321Q490.24018,24.1783,490.4443,24.3147Q490.64841,24.4511,490.85897,24.5773Q491.06953,24.7035,491.28603,24.8192Q491.50253,24.9349,491.72445,25.0399Q491.94637,25.1448,492.17317,25.2388Q492.39997,25.3327,492.6311,25.4154Q492.86224,25.4981,493.09715,25.5694Q493.33207,25.6407,493.5702,25.7003Q493.80833,25.76,494.0491,25.8078Q494.2899,25.8557,494.5327,25.8918Q494.7755,25.9278,495.0198,25.9518Q495.2641,25.9759,495.5093,25.988Q495.7545,26,496,26Q496.2455,26,496.4907,25.988Q496.7359,25.9759,496.9802,25.9518Q497.2245,25.9278,497.4673,25.8918Q497.7101,25.8557,497.9509,25.8078Q498.1917,25.76,498.4298,25.7003Q498.6679,25.6407,498.9028,25.5694Q499.1378,25.4981,499.3689,25.4154Q499.6,25.3327,499.8268,25.2388Q500.0536,25.1448,500.2755,25.0399Q500.4975,24.9349,500.714,24.8192Q500.9305,24.7035,501.141,24.5773Q501.3516,24.4511,501.5557,24.3147Q501.7598,24.1783,501.957,24.0321Q502.1542,23.8858,502.3439,23.7301Q502.5337,23.5744,502.7156,23.4095Q502.8975,23.2447,503.0711,23.0711Q503.2447,22.8975,503.4095,22.7156Q503.5744,22.5337,503.7301,22.3439Q503.8858,22.1542,504.0321,21.957Q504.1783,21.7598,504.3147,21.5557Q504.4511,21.3516,504.5773,21.141Q504.7035,20.9305,504.8192,20.714Q504.93489999999997,20.4975,505.0399,20.2755Q505.1448,20.0536,505.2388,19.8268Q505.3327,19.6,505.4154,19.3689Q505.4981,19.1378,505.5694,18.9028Q505.6407,18.6679,505.70029999999997,18.4298Q505.76,18.1917,505.8078,17.9509Q505.8557,17.7101,505.8918,17.4673Q505.9278,17.2245,505.9518,16.9802Q505.9759,16.7359,505.988,16.4907Q506,16.2455,506,16Z" fill="#FFFFFF" fill-opacity="1"/></g><g><path d="M499.85353,12.14728C499.65823,11.9518,499.34137,11.9518,499.14607,12.14728L497.29305,14.000530000000001L494.70695,14.000530000000001L492.85393,12.14728C492.65853,11.95222,492.342,11.95234,492.14674,12.147549999999999C491.95149,12.34276,491.95137,12.65923,492.14647,12.85459L494.00011,14.70722L494.00011,17.29278L492.14647,19.14541C491.95137,19.340780000000002,491.95149,19.65724,492.14674,19.852449999999997C492.342,20.0477,492.65853,20.047800000000002,492.85393,19.852719999999998L494.70695,17.99947L497.29305,17.99947L499.14607,19.852719999999998C499.34147,20.047800000000002,499.658,20.0477,499.85326,19.852449999999997C500.0485,19.65724,500.0486,19.340780000000002,499.85353,19.14541L497.99989,17.29278L497.99989,14.70722L499.85353,12.85459C500.049,12.65933,500.049,12.34253,499.85353,12.14728ZM495.00006,15.00027L496.99994,15.00027L496.99994,16.99973L495.00006,16.99973L495.00006,15.00027ZM496.65684,11.83424C497.33155,9.9284526,499.76369,9.378054,501.1935,10.807575C502.6233,12.2371,502.07280000000003,14.66873,500.1666,15.3433C500.1133,15.36353,500.0568,15.37432,499.99977,15.37517C499.7564,15.375060000000001,499.54846,15.19975,499.50725,14.95995C499.46604,14.72014,499.60353,14.4855,499.83291,14.40418C501.0458,13.9748,501.396,12.42751,500.4862,11.51787C499.57637,10.608229,498.02875,10.958372,497.59928,12.17102C497.51059,12.43606,497.22176,12.5769,496.95826,12.48361C496.69475,12.39032,496.55894,12.09914,496.65684,11.83736L496.65684,11.83424ZM501.9997,19.24914C502.0003,20.5886,501.0353,21.7336,499.71489,21.9601C498.39443,22.186700000000002,497.10287,21.428800000000003,496.65684,20.1658C496.5703,19.90719,496.707,19.62698,496.96408,19.53596C497.22117,19.44495,497.50378,19.576700000000002,497.59928,19.83211C498.02875,21.044800000000002,499.57637,21.3949,500.4862,20.485300000000002C501.396,19.57562,501.0458,18.02833,499.83291,17.598950000000002C499.57745,17.50346,499.44567,17.22091,499.5367,16.96388C499.62774,16.70685,499.90801,16.57018,500.1666,16.6567C501.2646,17.04628,501.9986,18.08436,501.9997,19.24914ZM495.34316,20.1658C494.66845,22.0715,492.23631,22.6219,490.806487,21.1924C489.376667,19.762900000000002,489.9271814,17.33128,491.83336,16.6567C492.092,16.57018,492.37226,16.70685,492.4633,16.96388C492.55434,17.22091,492.42255,17.50346,492.1671,17.598950000000002C490.954192,18.02833,490.603976,19.57562,491.51381,20.485300000000002C492.42363,21.3949,493.97125,21.044800000000002,494.40072,19.83211C494.49623,19.576700000000002,494.77884,19.44495,495.03592,19.53596C495.293,19.62698,495.4297,19.90719,495.34316,20.1658ZM490.000344495,12.750869999999999C489.999690789,11.41139,490.96466,10.266404,492.28511,10.0398635C493.60557,9.813322,494.89713,10.571173,495.34316,11.83424C495.44106,12.09602,495.30525,12.3872,495.04174,12.48049C494.77824,12.57378,494.48941,12.43294,494.40072,12.1679C493.97125,10.955247,492.42363,10.605105,491.5138,11.51474C490.603975,12.42438,490.954192,13.97168,492.1671,14.40105C492.40149,14.47897,492.54383,14.71635,492.50214,14.95976C492.46044,15.20318,492.2472,15.37967,492.00023,15.37517C491.94336,15.37532,491.8869,15.365590000000001,491.83336,15.34643C490.734582,14.956769999999999,490.000344734,13.91709,490.000344495,12.750869999999999Z" fill="#FFFFFF" fill-opacity="1"/></g></g></g></svg>